<svg xmlns="http://www.w3.org/2000/svg" viewBox="0 0 150 190" width="150" height="190"><g transform="translate(0,0) scale(1)"><path d="M75.00 31.80L75.83 31.87L76.66 31.96L77.48 32.07L78.30 32.19L79.11 32.34L79.93 32.50L80.73 32.68L81.54 32.88L82.34 33.10L83.13 33.33L83.92 33.58L84.71 33.85L85.49 34.13L86.27 34.43L87.04 34.75L87.80 35.08L88.57 35.43L89.32 35.79L90.08 36.16L90.82 36.56L91.57 36.96L92.30 37.38L93.04 37.82L93.76 38.27L94.49 38.73L95.21 39.21L95.92 39.70L96.63 40.21L97.33 40.73L98.03 41.27L98.72 41.82L99.41 42.38L100.10 42.95L100.77 43.54L101.45 44.15L102.11 44.77L102.77 45.40L103.43 46.04L104.08 46.70L104.72 47.37L105.36 48.06L105.99 48.75L106.61 49.47L107.23 50.19L107.84 50.93L108.44 51.68L109.03 52.45L109.62 53.22L110.20 54.01L110.77 54.82L111.33 55.63L111.88 56.46L112.42 57.30L112.96 58.16L113.48 59.02L114.00 59.90L114.50 60.79L114.99 61.69L115.47 62.60L115.94 63.53L116.40 64.46L116.84 65.41L117.28 66.36L117.70 67.33L118.11 68.31L118.50 69.29L118.88 70.29L119.25 71.30L119.60 72.31L119.94 73.33L120.26 74.36L120.57 75.40L120.87 76.45L121.14 77.50L121.41 78.56L121.65 79.63L121.88 80.70L122.10 81.78L122.30 82.86L122.48 83.95L122.64 85.04L122.79 86.14L122.92 87.24L123.03 88.34L123.13 89.45L123.21 90.55L123.27 91.66L123.31 92.78L123.34 93.89L123.35 95.00L123.34 96.11L123.31 97.22L123.27 98.34L123.21 99.45L123.13 100.55L123.03 101.66L122.92 102.76L122.79 103.86L122.64 104.96L122.48 106.05L122.30 107.14L122.10 108.22L121.88 109.30L121.65 110.37L121.41 111.44L121.14 112.50L120.87 113.55L120.57 114.60L120.26 115.64L119.94 116.67L119.60 117.69L119.25 118.70L118.88 119.71L118.50 120.71L118.11 121.69L117.70 122.67L117.28 123.64L116.84 124.59L116.40 125.54L115.94 126.47L115.47 127.40L114.99 128.31L114.50 129.21L114.00 130.10L113.48 130.98L112.96 131.84L112.42 132.70L111.88 133.54L111.33 134.37L110.77 135.18L110.20 135.99L109.62 136.78L109.03 137.55L108.44 138.32L107.84 139.07L107.23 139.81L106.61 140.53L105.99 141.25L105.36 141.94L104.72 142.63L104.08 143.30L103.43 143.96L102.77 144.60L102.11 145.23L101.45 145.85L100.77 146.46L100.10 147.05L99.41 147.62L98.72 148.18L98.03 148.73L97.33 149.27L96.63 149.79L95.92 150.30L95.21 150.79L94.49 151.27L93.76 151.73L93.04 152.18L92.30 152.62L91.57 153.04L90.82 153.44L90.08 153.84L89.32 154.21L88.57 154.57L87.80 154.92L87.04 155.25L86.27 155.57L85.49 155.87L84.71 156.15L83.92 156.42L83.13 156.67L82.34 156.90L81.54 157.12L80.73 157.32L79.93 157.50L79.11 157.66L78.30 157.81L77.48 157.93L76.66 158.04L75.83 158.13L75.00 158.20L74.17 158.25L73.33 158.28L72.50 158.29L71.66 158.28L70.82 158.25L69.97 158.20L69.13 158.13L68.29 158.04L67.44 157.92L66.60 157.78L65.76 157.63L64.92 157.45L64.08 157.25L63.24 157.03L62.41 156.78L61.58 156.51L60.75 156.23L59.93 155.92L59.11 155.59L58.30 155.23L57.49 154.86L56.69 154.46L55.90 154.04L55.11 153.61L54.33 153.15L53.56 152.67L52.79 152.17L52.04 151.65L51.29 151.11L50.56 150.55L49.83 149.97L49.11 149.37L48.41 148.76L47.71 148.12L47.03 147.47L46.36 146.80L45.70 146.11L45.05 145.41L44.41 144.69L43.79 143.95L43.17 143.20L42.58 142.43L41.99 141.65L41.42 140.85L40.86 140.04L40.31 139.22L39.78 138.38L39.26 137.53L38.75 136.67L38.26 135.79L37.78 134.90L37.31 134.01L36.86 133.10L36.42 132.18L35.99 131.25L35.58 130.31L35.18 129.37L34.79 128.41L34.42 127.45L34.06 126.47L33.71 125.49L33.38 124.50L33.06 123.51L32.75 122.51L32.46 121.50L32.17 120.48L31.91 119.46L31.65 118.44L31.40 117.40L31.17 116.37L30.95 115.33L30.74 114.28L30.55 113.23L30.36 112.18L30.19 111.12L30.03 110.06L29.88 109.00L29.74 107.93L29.61 106.86L29.50 105.79L29.39 104.72L29.30 103.64L29.22 102.57L29.15 101.49L29.09 100.41L29.04 99.33L29.00 98.25L28.97 97.17L28.96 96.08L28.95 95.00L28.96 93.92L28.97 92.83L29.00 91.75L29.04 90.67L29.09 89.59L29.15 88.51L29.22 87.43L29.30 86.36L29.39 85.28L29.50 84.21L29.61 83.14L29.74 82.07L29.88 81.00L30.03 79.94L30.19 78.88L30.36 77.82L30.55 76.77L30.74 75.72L30.95 74.67L31.17 73.63L31.40 72.60L31.65 71.56L31.91 70.54L32.17 69.52L32.46 68.50L32.75 67.49L33.06 66.49L33.38 65.50L33.71 64.51L34.06 63.53L34.42 62.55L34.79 61.59L35.18 60.63L35.58 59.69L35.99 58.75L36.42 57.82L36.86 56.90L37.31 55.99L37.78 55.10L38.26 54.21L38.75 53.33L39.26 52.47L39.78 51.62L40.31 50.78L40.86 49.96L41.42 49.15L41.99 48.35L42.58 47.57L43.17 46.80L43.79 46.05L44.41 45.31L45.05 44.59L45.70 43.89L46.36 43.20L47.03 42.53L47.71 41.88L48.41 41.24L49.11 40.63L49.83 40.03L50.56 39.45L51.29 38.89L52.04 38.35L52.79 37.83L53.56 37.33L54.33 36.85L55.11 36.39L55.90 35.96L56.69 35.54L57.49 35.14L58.30 34.77L59.11 34.41L59.93 34.08L60.75 33.77L61.58 33.49L62.41 33.22L63.24 32.97L64.08 32.75L64.92 32.55L65.76 32.37L66.60 32.22L67.44 32.08L68.29 31.96L69.13 31.87L69.97 31.80L70.82 31.75L71.66 31.72L72.50 31.71L73.33 31.72L74.17 31.75L75.00 31.80L75.00 34.20L74.23 34.27L73.46 34.36L72.69 34.46L71.93 34.58L71.17 34.72L70.41 34.88L69.66 35.05L68.91 35.24L68.16 35.45L67.42 35.67L66.69 35.91L65.95 36.16L65.22 36.43L64.50 36.71L63.78 37.01L63.06 37.32L62.35 37.64L61.64 37.99L60.94 38.34L60.23 38.71L59.54 39.09L58.84 39.49L58.16 39.90L57.47 40.33L56.79 40.77L56.11 41.22L55.44 41.68L54.77 42.16L54.10 42.65L53.44 43.16L52.79 43.68L52.13 44.21L51.49 44.76L50.84 45.32L50.20 45.89L49.57 46.48L48.94 47.08L48.31 47.69L47.69 48.32L47.08 48.96L46.47 49.61L45.86 50.28L45.27 50.96L44.67 51.65L44.09 52.36L43.51 53.08L42.94 53.81L42.38 54.56L41.82 55.31L41.27 56.09L40.73 56.87L40.19 57.67L39.67 58.47L39.15 59.30L38.65 60.13L38.15 60.97L37.66 61.83L37.19 62.70L36.72 63.58L36.27 64.47L35.82 65.38L35.39 66.29L34.97 67.21L34.56 68.15L34.16 69.09L33.78 70.05L33.41 71.01L33.05 71.98L32.71 72.97L32.38 73.96L32.06 74.96L31.76 75.96L31.47 76.98L31.20 78.00L30.95 79.03L30.71 80.06L30.48 81.10L30.27 82.15L30.08 83.20L29.90 84.26L29.74 85.32L29.60 86.39L29.47 87.46L29.36 88.53L29.26 89.60L29.19 90.68L29.13 91.76L29.08 92.84L29.06 93.92L29.05 95.00L29.06 96.08L29.08 97.16L29.13 98.24L29.19 99.32L29.26 100.40L29.36 101.47L29.47 102.54L29.60 103.61L29.74 104.68L29.90 105.74L30.08 106.80L30.27 107.85L30.48 108.90L30.71 109.94L30.95 110.97L31.20 112.00L31.47 113.02L31.76 114.04L32.06 115.04L32.38 116.04L32.71 117.03L33.05 118.02L33.41 118.99L33.78 119.95L34.16 120.91L34.56 121.85L34.97 122.79L35.39 123.71L35.82 124.62L36.27 125.53L36.72 126.42L37.19 127.30L37.66 128.17L38.15 129.03L38.65 129.87L39.15 130.70L39.67 131.53L40.19 132.33L40.73 133.13L41.27 133.91L41.82 134.69L42.38 135.44L42.94 136.19L43.51 136.92L44.09 137.64L44.67 138.35L45.27 139.04L45.86 139.72L46.47 140.39L47.08 141.04L47.69 141.68L48.31 142.31L48.94 142.92L49.57 143.52L50.20 144.11L50.84 144.68L51.49 145.24L52.13 145.79L52.79 146.32L53.44 146.84L54.10 147.35L54.77 147.84L55.44 148.32L56.11 148.78L56.79 149.23L57.47 149.67L58.16 150.10L58.84 150.51L59.54 150.91L60.23 151.29L60.94 151.66L61.64 152.01L62.35 152.36L63.06 152.68L63.78 152.99L64.50 153.29L65.22 153.57L65.95 153.84L66.69 154.09L67.42 154.33L68.16 154.55L68.91 154.76L69.66 154.95L70.41 155.12L71.17 155.28L71.93 155.42L72.69 155.54L73.46 155.64L74.23 155.73L75.00 155.80L75.78 155.85L76.55 155.88L77.34 155.90L78.12 155.89L78.90 155.87L79.69 155.82L80.48 155.76L81.27 155.68L82.05 155.57L82.84 155.45L83.63 155.31L84.42 155.14L85.21 154.96L85.99 154.75L86.77 154.52L87.55 154.28L88.33 154.01L89.11 153.72L89.88 153.41L90.64 153.08L91.40 152.73L92.16 152.35L92.91 151.96L93.66 151.55L94.39 151.12L95.12 150.66L95.85 150.19L96.56 149.70L97.27 149.19L97.97 148.65L98.66 148.10L99.34 147.54L100.01 146.95L100.67 146.34L101.32 145.72L101.96 145.08L102.59 144.43L103.21 143.75L103.82 143.06L104.42 142.36L105.00 141.64L105.57 140.90L106.13 140.15L106.68 139.39L107.22 138.61L107.74 137.82L108.25 137.01L108.75 136.19L109.23 135.36L109.71 134.52L110.17 133.67L110.61 132.80L111.05 131.93L111.47 131.04L111.88 130.15L112.28 129.24L112.66 128.32L113.03 127.40L113.39 126.47L113.73 125.53L114.07 124.58L114.39 123.62L114.70 122.66L114.99 121.69L115.27 120.71L115.55 119.73L115.81 118.74L116.05 117.75L116.29 116.75L116.51 115.74L116.72 114.73L116.92 113.72L117.11 112.70L117.29 111.68L117.46 110.65L117.61 109.63L117.76 108.59L117.89 107.56L118.01 106.52L118.12 105.48L118.22 104.44L118.31 103.40L118.39 102.35L118.46 101.30L118.52 100.25L118.57 99.20L118.60 98.15L118.63 97.10L118.64 96.05L118.65 95.00L118.64 93.95L118.63 92.90L118.60 91.85L118.57 90.80L118.52 89.75L118.46 88.70L118.39 87.65L118.31 86.60L118.22 85.56L118.12 84.52L118.01 83.48L117.89 82.44L117.76 81.41L117.61 80.37L117.46 79.35L117.29 78.32L117.11 77.30L116.92 76.28L116.72 75.27L116.51 74.26L116.29 73.25L116.05 72.25L115.81 71.26L115.55 70.27L115.27 69.29L114.99 68.31L114.70 67.34L114.39 66.38L114.07 65.42L113.73 64.47L113.39 63.53L113.03 62.60L112.66 61.68L112.28 60.76L111.88 59.85L111.47 58.96L111.05 58.07L110.61 57.20L110.17 56.33L109.71 55.48L109.23 54.64L108.75 53.81L108.25 52.99L107.74 52.18L107.22 51.39L106.68 50.61L106.13 49.85L105.57 49.10L105.00 48.36L104.42 47.64L103.82 46.94L103.21 46.25L102.59 45.57L101.96 44.92L101.32 44.28L100.67 43.66L100.01 43.05L99.34 42.46L98.66 41.90L97.97 41.35L97.27 40.81L96.56 40.30L95.85 39.81L95.12 39.34L94.39 38.88L93.66 38.45L92.91 38.04L92.16 37.65L91.40 37.27L90.64 36.92L89.88 36.59L89.11 36.28L88.33 35.99L87.55 35.72L86.77 35.48L85.99 35.25L85.21 35.04L84.42 34.86L83.63 34.69L82.84 34.55L82.05 34.43L81.27 34.32L80.48 34.24L79.69 34.18L78.90 34.13L78.12 34.11L77.34 34.10L76.55 34.12L75.78 34.15L75.00 34.20Z" fill="#f4f1e9"/><path d="M75 137 C66 115 65 87 75 67 C85 87 84 115 75 137 Z" fill="none" stroke="#f4f1e9" stroke-width="2.4" stroke-linejoin="round"/><path d="M74 135 C56 133 34 123 34 101 C34 83 52 79 62 93 C69 103 60 113 54 109 C48 105 52 96 59 98" fill="none" stroke="#f4d9b8" stroke-width="2.4" stroke-linecap="round" stroke-linejoin="round"/><path d="M76 135 C94 133 116 123 116 101 C116 83 98 79 88 93 C81 103 79 121 76 135" fill="none" stroke="#f4f1e9" stroke-width="2.4" stroke-linecap="round" stroke-linejoin="round"/><path d="M116 101 L101 101" fill="none" stroke="#f4f1e9" stroke-width="2.4" stroke-linecap="round"/><circle cx="75" cy="147" r="2.3" fill="#f4f1e9"/></g></svg>